<svg version="1.1" id="Layer_1" xmlns="http://www.w3.org/2000/svg" xmlns:xlink="http://www.w3.org/1999/xlink" x="0px" y="0px"
	 width="100%" viewBox="0 0 2000 1500" enable-background="new 0 0 2000 1500" xml:space="preserve">
<path fill="#3C6D71" opacity="1.000000" stroke="none" 
	d="
M1056.000000,1501.000000 
	C705.500122,1501.000000 355.500214,1500.993042 5.500340,1501.093018 
	C1.752073,1501.094116 0.906351,1500.250244 0.907089,1496.500366 
	C1.004943,999.500488 1.004909,502.500641 0.907292,5.500778 
	C0.906556,1.753600 1.748352,0.906595 5.499250,0.907140 
	C669.165710,1.003711 1332.832153,1.003691 1996.498657,0.907524 
	C2000.244385,0.906981 2001.093628,1.746266 2001.092896,5.498659 
	C2000.994873,502.498474 2000.994995,999.498352 2001.092529,1496.498169 
	C2001.093262,1500.242676 2000.255493,1501.094727 1996.501831,1501.093506 
	C1683.167847,1500.992188 1369.833984,1501.000000 1056.000000,1501.000000 
z"/>
<path fill="#F2743C" opacity="1.000000" stroke="none" 
	d="
M397.035004,802.059692 
	C438.289612,810.685303 477.108398,824.840698 514.019348,844.247131 
	C516.491455,845.546936 518.995667,845.874207 521.685364,846.016907 
	C540.306152,847.004883 559.010132,846.224548 577.554688,848.891968 
	C602.210083,852.438538 624.146729,861.346375 640.818298,880.652344 
	C642.952942,883.124268 644.588196,882.362732 646.783997,881.235352 
	C662.946289,872.937500 678.290222,863.208252 694.085754,854.270264 
	C707.132080,846.887939 720.189209,839.499268 734.447083,834.629150 
	C750.451782,829.162354 766.582458,829.246033 782.503662,834.724426 
	C805.310425,842.572021 815.579102,863.121277 808.433838,886.172058 
	C803.479431,902.155090 793.349609,914.565918 780.716492,925.107666 
	C765.010803,938.213440 747.396240,948.335938 729.166138,957.391235 
	C684.319031,979.667786 637.756042,997.603699 589.540222,1011.056702 
	C536.937073,1025.733887 485.680176,1020.374390 435.657440,999.409851 
	C414.888000,990.705322 394.846985,980.584534 375.418976,969.229370 
	C372.640320,967.605225 370.663116,966.533936 368.091766,970.102905 
	C365.492767,973.710205 361.095459,975.054504 356.543030,975.056458 
	C327.382324,975.068848 298.221283,975.145630 269.061096,975.020874 
	C259.131897,974.978394 252.012924,967.828979 251.998138,957.895569 
	C251.916504,903.073486 251.920700,848.251099 251.994705,793.429016 
	C252.008438,783.258850 259.192993,776.075500 269.355530,776.038086 
	C298.182678,775.932007 327.010590,775.940247 355.837830,776.032593 
	C365.875488,776.064758 372.977081,782.750244 373.201263,792.802612 
	C373.299194,797.194092 374.985992,798.484558 378.901520,798.981689 
	C384.837830,799.735535 390.713135,800.969604 397.035004,802.059692 
z"/>
<path fill="#BCED62" opacity="1.000000" stroke="none" 
	d="
M1046.162598,677.033813 
	C1060.635864,677.034790 1074.631348,676.994690 1088.626099,677.092590 
	C1090.222046,677.103760 1093.267334,675.891235 1092.499268,679.613953 
	C1091.986328,682.099976 1092.732910,685.607971 1088.028931,685.065735 
	C1073.803345,683.425842 1059.526001,682.209900 1045.326660,680.380859 
	C1040.599976,679.771973 1038.471313,680.502502 1037.864380,685.691040 
	C1036.786865,694.903076 1036.474854,694.866516 1045.981079,694.867371 
	C1059.143311,694.868530 1072.305908,694.836914 1085.467651,694.911560 
	C1087.176025,694.921265 1089.968262,693.969421 1089.288208,697.600708 
	C1088.797607,700.220337 1089.430176,703.419922 1084.727295,702.841553 
	C1070.846313,701.134399 1056.922241,699.779480 1043.019531,698.246460 
	C1035.977661,697.469971 1035.984375,697.431213 1034.759766,704.252991 
	C1034.553833,705.400024 1034.379883,706.558228 1034.081421,707.682129 
	C1033.060913,711.525574 1034.699951,712.629883 1038.414429,712.595459 
	C1052.741699,712.462769 1067.071045,712.521729 1081.399414,712.566772 
	C1086.031738,712.581360 1087.004150,714.105774 1085.767090,718.378296 
	C1084.935181,721.251221 1083.017822,720.589172 1081.025757,720.379333 
	C1066.618042,718.861267 1052.194458,717.485046 1037.804443,715.817810 
	C1034.096313,715.388245 1032.450317,716.153564 1031.837891,720.150574 
	C1030.295898,730.212891 1030.095459,730.182007 1040.342896,730.182617 
	C1053.505127,730.183472 1066.669678,730.323181 1079.828125,730.100647 
	C1083.755615,730.034302 1084.650146,731.660461 1084.639404,735.104675 
	C1084.626831,739.100220 1081.920532,738.217163 1079.767090,737.998596 
	C1065.188599,736.518799 1050.602295,735.086548 1036.059204,733.305908 
	C1031.505981,732.748474 1029.207031,733.199463 1028.546875,738.607361 
	C1027.379150,748.170898 1026.959351,748.119629 1036.814697,748.119690 
	C1050.976562,748.119751 1065.151245,748.470459 1079.294556,747.957153 
	C1085.446655,747.733765 1088.365479,750.219849 1090.161743,756.254395 
	C1081.093994,755.327515 1072.385010,754.462402 1063.682129,753.541260 
	C1053.083862,752.419495 1042.484741,751.301147 1031.898682,750.072815 
	C1028.507324,749.679321 1025.903809,749.920593 1025.885620,754.275696 
	C1025.876953,756.350647 1024.545776,757.052917 1022.554626,757.043396 
	C1013.391357,756.999390 1004.226929,756.965576 995.064697,757.073730 
	C992.814880,757.100342 991.845886,756.010742 991.014954,754.183716 
	C985.363281,741.757629 979.700134,729.336060 973.915039,716.971863 
	C972.578674,714.115723 973.186707,711.095093 972.583496,707.009216 
	C970.114258,712.243591 970.065491,716.909790 969.230957,721.331543 
	C967.286255,731.635315 965.532227,741.978943 963.937012,752.342712 
	C963.382019,755.948547 961.951233,757.263184 958.161682,757.134277 
	C949.341431,756.834290 940.503357,756.968079 931.674255,757.072815 
	C928.843140,757.106323 927.962952,756.421021 928.513306,753.340942 
	C934.897156,717.617004 941.182800,681.875183 947.339478,646.111389 
	C947.950562,642.561584 949.450867,641.507629 952.884705,641.592163 
	C961.043701,641.792908 969.213257,641.767639 977.373718,641.600525 
	C980.311646,641.540405 981.846436,642.606628 983.035278,645.273499 
	C988.254578,656.980835 993.620422,668.623962 999.054199,680.233826 
	C1000.496826,683.316162 1000.766968,686.559631 1000.741211,690.743042 
	C1002.609802,688.540222 1002.628784,686.731018 1002.930603,685.051636 
	C1005.285889,671.944092 1007.735901,658.851440 1009.866272,645.707153 
	C1010.387695,642.490295 1011.733154,641.574585 1014.749634,641.617188 
	C1023.411621,641.739685 1032.079102,641.781555 1040.739136,641.602051 
	C1044.788574,641.518188 1045.675659,643.303894 1044.885376,646.834717 
	C1044.303955,649.431946 1044.084595,652.120178 1043.373413,654.675964 
	C1042.362183,658.310730 1043.672607,659.329041 1047.245605,659.296204 
	C1061.739502,659.162781 1076.238159,659.401550 1090.729004,659.154358 
	C1095.225342,659.077759 1096.065918,660.493347 1095.208984,664.638977 
	C1094.594971,667.608948 1093.005859,667.425354 1090.920654,667.206299 
	C1079.328003,665.988647 1067.734131,664.782959 1056.139893,663.581360 
	C1053.655884,663.323914 1051.166138,662.894348 1048.683350,662.923035 
	C1046.513062,662.948120 1043.437744,660.693115 1042.327271,663.322998 
	C1040.674438,667.236694 1039.564087,671.717834 1040.336304,675.964417 
	C1040.706177,677.998657 1043.829956,676.703308 1046.162598,677.033813 
z"/>
<path fill="#F1743C" opacity="1.000000" stroke="none" 
	d="
M676.014771,516.834961 
	C555.889343,463.726990 418.295288,534.582947 392.199585,662.697937 
	C389.568359,675.615662 388.138458,688.693542 388.023590,701.891907 
	C387.982910,706.564453 386.311310,710.094299 381.412140,711.129578 
	C375.669037,712.343323 371.667145,708.379639 371.698242,701.666687 
	C371.790619,681.720459 374.773712,662.192139 380.138123,642.997620 
	C403.869080,558.084778 478.534698,494.158508 565.684082,484.169037 
	C672.915466,471.877716 770.651978,535.046326 803.354187,637.893311 
	C810.064331,658.996338 813.188354,680.702026 813.122498,702.855164 
	C813.104187,709.020325 810.083557,712.788025 805.119812,712.866638 
	C800.161743,712.945129 796.926392,709.269653 796.848145,703.091614 
	C796.402893,667.963745 788.380859,634.786682 771.125549,604.062866 
	C749.040161,564.739197 717.395813,535.731934 676.014771,516.834961 
z"/>
<path fill="#BCED62" opacity="1.000000" stroke="none" 
	d="
M1304.906250,721.375732 
	C1304.557983,720.471985 1305.734253,718.498230 1303.904785,719.492371 
	C1302.957764,720.007019 1302.626587,721.735352 1302.113525,722.955872 
	C1297.855469,733.084412 1293.537354,743.189148 1289.432617,753.379822 
	C1288.347900,756.072693 1286.951172,757.245361 1283.941040,757.107483 
	C1278.620239,756.863647 1273.274170,756.887207 1267.950317,757.095581 
	C1264.667847,757.224121 1263.193237,756.314453 1263.023926,752.742188 
	C1262.550903,742.761108 1261.728516,732.796448 1261.020752,722.826904 
	C1260.934082,721.606873 1260.706665,720.396912 1259.471558,719.103271 
	C1258.006348,725.479553 1256.521484,731.851379 1255.081909,738.233459 
	C1253.909912,743.429810 1252.734497,748.626770 1251.676636,753.846924 
	C1251.206787,756.165283 1250.131592,757.128601 1247.637817,757.086121 
	C1239.475464,756.947021 1231.306885,756.919556 1223.145996,757.095642 
	C1219.951050,757.164551 1219.521118,755.863708 1220.137207,753.192322 
	C1227.095459,723.023132 1234.045898,692.851929 1240.893188,662.657532 
	C1241.504761,659.960510 1242.852051,659.200867 1245.395020,659.219116 
	C1256.058472,659.295593 1266.724487,659.357178 1277.385864,659.187500 
	C1280.849121,659.132324 1281.940674,660.339417 1282.083740,663.773315 
	C1282.576294,675.588806 1283.388672,687.391174 1284.111084,699.196594 
	C1284.190063,700.487610 1283.932983,701.878845 1285.100220,703.301025 
	C1286.935791,702.469177 1287.109131,700.502991 1287.722900,699.015930 
	C1292.613770,687.167297 1297.493774,675.312378 1302.170044,663.378174 
	C1303.383667,660.281067 1305.034790,659.150513 1308.435303,659.166382 
	C1337.927490,659.303528 1367.420532,659.220642 1396.912964,659.314514 
	C1398.456299,659.319458 1401.715088,657.982727 1400.956055,661.664124 
	C1400.450317,664.116089 1400.572876,667.648499 1396.123901,667.140381 
	C1384.707886,665.836670 1373.271851,664.708069 1361.843628,663.511597 
	C1357.040649,663.008789 1352.228271,662.583252 1347.437500,661.984009 
	C1344.727783,661.645142 1343.605591,662.632996 1343.149170,665.360779 
	C1341.194336,677.044861 1341.120117,677.032104 1353.062866,677.032471 
	C1366.226318,677.032898 1379.390015,676.994141 1392.552856,677.085632 
	C1394.171631,677.096863 1397.129883,675.938904 1396.347046,679.682251 
	C1395.829102,682.158997 1396.875000,685.644409 1392.042114,685.075500 
	C1377.819458,683.401428 1363.568604,681.960144 1349.320190,680.512756 
	C1346.782837,680.255066 1343.057617,678.554321 1341.918579,680.984558 
	C1340.143433,684.771606 1339.692871,689.370728 1340.333374,693.650452 
	C1340.639160,695.693787 1343.163818,694.818542 1344.689209,694.824890 
	C1360.185181,694.889465 1375.681641,694.844910 1391.177612,694.894104 
	C1393.180908,694.900452 1395.454956,694.201416 1396.070557,697.568665 
	C1397.095947,703.177856 1397.219482,703.163635 1391.545044,702.538635 
	C1375.323486,700.751953 1359.089111,699.079651 1342.869507,697.275940 
	C1340.375488,696.998657 1339.247070,697.627991 1338.984741,700.301941 
	C1337.572021,714.693787 1335.459595,712.400146 1349.617676,712.517944 
	C1364.946167,712.645386 1380.277588,712.644836 1395.605591,712.487366 
	C1400.225708,712.439880 1404.351807,712.931396 1408.195190,715.941040 
	C1410.605103,717.828125 1413.777710,718.741211 1417.507446,720.520264 
	C1392.880737,718.408447 1369.231201,716.426636 1345.592041,714.327698 
	C1337.617065,713.619507 1337.628906,713.483582 1336.468140,721.357361 
	C1336.370972,722.016541 1336.258179,722.674011 1336.181641,723.335632 
	C1335.391846,730.165222 1335.393433,730.174805 1342.350220,730.178345 
	C1356.180176,730.185303 1370.010986,730.108887 1383.839111,730.269409 
	C1385.620239,730.290161 1389.271484,728.479736 1388.770630,732.723755 
	C1388.404785,735.824524 1387.457520,738.725281 1382.770874,738.029785 
	C1370.914307,736.270447 1358.986206,734.992981 1347.086914,733.521179 
	C1346.921753,733.500732 1346.759399,733.458984 1346.594604,733.434509 
	C1334.649048,731.658020 1334.815674,731.672913 1333.744873,743.726440 
	C1333.403931,747.566406 1334.814453,748.194458 1338.112183,748.163818 
	C1351.107788,748.042969 1364.107422,748.002197 1377.099854,748.243225 
	C1379.013794,748.278748 1382.670166,746.007141 1382.939697,750.303772 
	C1383.219604,754.766296 1380.759644,756.349487 1375.763062,755.702515 
	C1363.047852,754.055847 1350.320923,752.498901 1337.613770,750.793457 
	C1334.825195,750.419250 1332.598633,750.293945 1332.514282,754.021240 
	C1332.463867,756.253479 1331.263062,757.102539 1328.969604,757.073914 
	C1320.639648,756.969666 1312.304810,756.911194 1303.977539,757.094360 
	C1300.557007,757.169556 1300.644653,755.321960 1300.943115,752.967224 
	C1302.262451,742.560303 1303.566528,732.151367 1304.906250,721.375732 
z"/>
<path fill="#B9EA63" opacity="1.000000" stroke="none" 
	d="
M909.000793,772.724731 
	C1184.599243,772.724670 1459.697510,772.723450 1734.795898,772.738403 
	C1737.956543,772.738586 1741.161499,772.662903 1744.264160,773.146484 
	C1746.907227,773.558472 1749.726074,774.741272 1749.849609,777.958801 
	C1749.975342,781.230469 1747.220337,782.306885 1744.576416,783.043091 
	C1741.487061,783.903320 1738.294556,783.690247 1735.131470,783.690308 
	C1459.866455,783.692383 1184.601562,783.692322 909.336548,783.692200 
	C891.007751,783.692200 872.679016,783.683777 854.350220,783.698120 
	C851.672913,783.700195 848.981934,783.686890 846.442017,782.800354 
	C844.199951,782.017822 841.974731,780.893127 842.030762,778.043091 
	C842.086487,775.213318 844.314087,774.001526 846.595093,773.432800 
	C848.821716,772.877686 851.201355,772.762451 853.514648,772.755981 
	C871.843262,772.704773 890.171997,772.725830 909.000793,772.724731 
z"/>
<path fill="#BCED62" opacity="1.000000" stroke="none" 
	d="
M1478.561523,740.509155 
	C1477.029175,742.906616 1475.693970,744.991089 1474.325562,747.127563 
	C1475.930908,748.805542 1477.865845,748.071350 1479.561035,748.079407 
	C1494.054810,748.148254 1508.549561,748.068176 1523.042847,748.182312 
	C1524.960449,748.197388 1528.255371,746.772400 1527.910645,750.985352 
	C1527.654297,754.118835 1527.265503,756.679932 1522.718262,756.118591 
	C1508.178589,754.323486 1493.585327,752.967224 1479.021973,751.358948 
	C1473.850708,750.787903 1468.995850,750.393738 1464.320068,753.904663 
	C1459.859253,757.254272 1454.223877,758.108337 1448.732422,758.727478 
	C1429.715454,760.871826 1410.840698,759.987610 1392.072388,756.170349 
	C1388.391846,755.421692 1387.383423,754.229736 1388.793701,750.514404 
	C1391.508667,743.361572 1393.864014,736.065552 1396.159790,728.763306 
	C1397.132446,725.670044 1398.378906,724.565918 1401.877319,725.506042 
	C1415.387695,729.136597 1429.144409,729.319702 1443.036255,728.188293 
	C1448.262329,727.762695 1447.523804,724.188965 1447.927979,721.166077 
	C1448.452026,717.245728 1445.182129,718.256897 1443.127075,718.006104 
	C1435.530640,717.078857 1427.843262,716.798950 1420.398560,714.813965 
	C1406.250610,711.041626 1400.166504,702.776306 1401.148315,688.129517 
	C1401.741333,679.283752 1403.833252,670.724548 1407.137573,662.460327 
	C1412.333374,649.464966 1422.221802,642.379578 1435.681030,640.286255 
	C1453.828735,637.463745 1471.869385,638.913208 1489.788574,642.593323 
	C1492.492432,643.148682 1493.585938,644.133362 1492.399658,646.982788 
	C1491.379883,649.432129 1490.951172,652.132385 1489.886475,654.557129 
	C1488.104126,658.615784 1489.795044,659.327515 1493.526367,659.295288 
	C1508.519287,659.165894 1523.513794,659.230835 1538.507812,659.252930 
	C1543.956787,659.260986 1544.139648,659.757751 1543.119263,664.938782 
	C1542.489990,668.134033 1540.471069,667.345520 1538.604858,667.153992 
	C1523.532104,665.607422 1508.440063,664.202209 1493.410278,662.308350 
	C1488.890991,661.738953 1486.407104,662.595886 1485.809814,667.293823 
	C1485.199829,672.089111 1482.832275,673.146973 1477.960938,672.214600 
	C1467.313477,670.176758 1456.515137,669.915100 1445.623169,670.705933 
	C1440.004395,671.113953 1440.739014,674.932129 1440.471680,677.987549 
	C1440.153198,681.629028 1443.671631,680.580994 1445.600708,680.786743 
	C1452.561646,681.528931 1459.526489,682.194275 1466.280396,684.123291 
	C1471.947632,685.741821 1477.363525,687.989929 1481.216919,692.690369 
	C1482.977661,694.838074 1485.087891,694.885315 1487.456543,694.880737 
	C1502.617065,694.851685 1517.777832,694.837769 1532.938110,694.903137 
	C1534.979614,694.911926 1537.949951,693.835083 1537.264282,698.122742 
	C1536.760498,701.272156 1536.391724,703.331238 1532.190552,702.799194 
	C1518.482300,701.063110 1504.723511,699.723999 1490.980469,698.267273 
	C1489.185913,698.077026 1487.357300,697.619385 1485.374390,698.442261 
	C1486.071655,702.148560 1487.250977,705.797058 1487.063721,709.662659 
	C1486.894043,713.163147 1489.675293,712.498230 1491.676025,712.508423 
	C1504.337280,712.572876 1517.000244,712.644653 1529.659790,712.493958 
	C1533.660156,712.446411 1534.607666,714.073608 1533.885742,717.686523 
	C1533.384033,720.198242 1532.218384,720.823486 1529.716064,720.533447 
	C1516.980469,719.057251 1504.211548,717.865173 1491.483643,716.330017 
	C1488.060059,715.917114 1486.497192,716.371033 1485.832764,720.265686 
	C1484.133789,730.223022 1483.890625,730.181458 1494.062866,730.181763 
	C1504.891846,730.182068 1515.720947,730.160400 1526.549683,730.201599 
	C1528.732544,730.209900 1531.535889,729.407349 1531.039917,733.456970 
	C1530.647583,736.659058 1529.953247,738.681885 1525.879517,738.168396 
	C1513.987061,736.669434 1502.019653,735.749451 1490.143555,734.143860 
	C1484.539429,733.386169 1480.306152,733.927551 1478.561523,740.509155 
z"/>
<path fill="#BBEC62" opacity="1.000000" stroke="none" 
	d="
M1181.478027,698.422119 
	C1175.774048,696.650146 1174.571045,699.623962 1173.971680,704.045593 
	C1172.817749,712.558655 1172.666382,712.539490 1181.379272,712.542297 
	C1193.877075,712.546326 1206.375000,712.511780 1218.872314,712.592896 
	C1220.602173,712.604126 1223.553711,711.801941 1222.726929,715.274292 
	C1222.162964,717.642700 1222.906982,721.187012 1218.090210,720.575317 
	C1204.875000,718.897034 1191.591675,717.759460 1178.369019,716.134155 
	C1173.864990,715.580505 1171.511963,716.235352 1170.700562,721.474792 
	C1169.342896,730.241882 1168.925171,730.177124 1177.919678,730.177734 
	C1190.084106,730.178589 1202.249390,730.118164 1214.412231,730.256470 
	C1215.975586,730.274231 1219.202271,728.903625 1218.652588,732.458557 
	C1218.261353,734.989685 1218.795044,738.795227 1213.804321,738.213440 
	C1199.910034,736.593628 1185.966309,735.399414 1172.073120,733.772461 
	C1168.643921,733.370850 1166.947632,734.236267 1165.727295,737.505676 
	C1164.466797,740.882751 1162.436768,743.972595 1160.695679,747.278931 
	C1162.292603,748.748352 1164.201050,748.071228 1165.903687,748.078613 
	C1180.567505,748.142517 1195.232056,748.061035 1209.894897,748.192810 
	C1211.561646,748.207703 1214.803711,746.683350 1214.460571,750.505676 
	C1214.187500,753.549561 1214.102783,756.781677 1209.043335,756.142761 
	C1194.836426,754.348633 1180.558716,753.123718 1166.328613,751.500610 
	C1161.148560,750.909790 1156.685303,751.436401 1151.625977,753.790222 
	C1135.557617,761.265747 1118.622925,761.184570 1101.944824,755.827698 
	C1092.864990,752.911377 1090.506958,744.788330 1090.112183,736.196838 
	C1089.587402,724.777222 1092.273560,713.688293 1094.157959,702.536621 
	C1096.349121,689.568420 1098.833862,676.649780 1101.011353,663.679443 
	C1101.541260,660.523743 1102.663452,659.067932 1106.114258,659.174988 
	C1113.439209,659.401978 1120.784302,659.452026 1128.104858,659.161499 
	C1132.282471,658.995728 1132.738159,660.631897 1132.094360,664.202881 
	C1128.461182,684.356201 1125.011108,704.542542 1121.465698,724.711792 
	C1120.340454,731.113525 1120.294556,731.110901 1126.727539,731.110291 
	C1128.393555,731.110107 1130.059814,731.028259 1131.725342,731.046448 
	C1136.474854,731.098328 1138.403687,728.427979 1139.176025,724.035339 
	C1142.664551,704.194519 1146.442749,684.403687 1149.790771,664.539917 
	C1150.493164,660.372437 1151.988281,659.114136 1156.181152,659.146790 
	C1180.841919,659.338867 1205.505005,659.210815 1230.166870,659.300537 
	C1232.073120,659.307556 1235.529053,657.893311 1234.859375,662.180725 
	C1234.405396,665.086975 1234.144165,667.883423 1229.477417,667.289307 
	C1215.107788,665.459900 1200.657593,664.271484 1186.269897,662.570251 
	C1182.839355,662.164612 1181.243774,662.578247 1180.535767,666.410522 
	C1178.567139,677.065979 1178.372925,677.029907 1189.037720,677.030212 
	C1201.535522,677.030579 1214.033691,676.979187 1226.530396,677.096680 
	C1228.124390,677.111572 1231.235474,675.797974 1230.726074,679.355896 
	C1230.348755,681.990784 1230.752441,685.674438 1225.855957,685.069641 
	C1214.948364,683.722534 1204.003296,682.681519 1193.074463,681.504883 
	C1189.265991,681.094849 1185.444702,680.761047 1181.660156,680.187805 
	C1179.141968,679.806396 1178.111328,680.632751 1177.693726,683.173889 
	C1175.311523,697.667908 1173.911743,694.621094 1186.505737,694.821960 
	C1198.500488,695.013306 1210.501587,694.798584 1222.497437,694.950012 
	C1223.978394,694.968628 1227.265625,693.455322 1226.582642,697.182739 
	C1226.111084,699.756287 1226.606323,703.474243 1221.642578,702.858704 
	C1208.422607,701.219543 1195.160156,699.923340 1181.478027,698.422119 
z"/>
<path fill="#BCED62" opacity="1.000000" stroke="none" 
	d="
M1606.263428,731.804138 
	C1607.148682,736.091553 1608.443848,740.059204 1609.319824,744.117371 
	C1610.024780,747.383423 1611.785645,748.205688 1614.945923,748.179016 
	C1631.110596,748.042358 1647.277344,748.074036 1663.442505,748.175903 
	C1665.365356,748.188049 1668.543823,746.761108 1668.218018,751.069092 
	C1667.960327,754.478210 1667.343018,756.652161 1662.932861,756.113464 
	C1647.888794,754.275574 1632.807495,752.732971 1617.724731,751.233521 
	C1615.079712,750.970520 1610.564453,749.115845 1612.564087,755.279053 
	C1613.170654,757.149170 1611.504639,756.991028 1610.439209,756.995300 
	C1600.939941,757.033020 1591.439453,756.937073 1581.942017,757.073181 
	C1579.026367,757.114929 1578.847656,755.071228 1578.334229,753.226318 
	C1576.236450,745.688110 1574.217529,738.127930 1572.146362,730.582275 
	C1571.757080,729.163696 1571.262085,727.774231 1570.686035,725.962708 
	C1568.197632,728.074219 1568.725952,730.778137 1568.274658,732.984436 
	C1566.940552,739.505859 1565.845337,746.084961 1564.929688,752.679321 
	C1564.486084,755.875427 1563.299805,757.226379 1559.863770,757.114868 
	C1552.372070,756.871582 1544.864990,756.935852 1537.368408,757.087524 
	C1534.158813,757.152405 1533.079712,756.510315 1533.725830,752.885620 
	C1539.043823,723.050781 1544.158691,693.179688 1549.264160,663.307373 
	C1549.764771,660.378296 1550.925903,659.082520 1554.125366,659.177246 
	C1561.618408,659.398804 1569.124756,659.358704 1576.620972,659.198914 
	C1580.111450,659.124512 1581.354492,659.971313 1580.521118,663.785461 
	C1578.994507,670.772400 1578.001343,677.876282 1576.814819,684.936279 
	C1576.711792,685.548889 1576.632080,686.261780 1577.762329,686.827698 
	C1581.081299,683.528564 1583.065796,679.136108 1585.709961,675.236023 
	C1587.952637,671.928101 1589.853394,668.380432 1592.201172,665.154053 
	C1594.429688,662.091492 1594.047729,660.502441 1590.165161,660.084900 
	C1588.857178,659.944153 1587.556030,659.739563 1586.261841,659.261108 
	C1609.032104,659.261108 1631.802612,659.301453 1654.572754,659.226868 
	C1659.102539,659.212036 1658.519653,662.811646 1658.730713,665.222534 
	C1659.052734,668.901306 1655.905151,667.118408 1654.394653,667.004883 
	C1646.922607,666.443115 1639.400391,665.998230 1632.040039,664.696960 
	C1627.262085,663.852295 1624.849487,665.703979 1623.052856,669.515320 
	C1621.948242,671.858582 1618.518066,674.067444 1619.759766,676.240479 
	C1620.934082,678.295532 1624.659180,676.961731 1627.243530,676.989624 
	C1637.075073,677.095642 1646.911621,677.168823 1656.739868,676.960144 
	C1660.202515,676.886658 1661.689819,677.812927 1662.356934,681.440369 
	C1663.069458,685.315125 1661.282593,685.238708 1658.662476,684.963074 
	C1648.392090,683.882202 1638.112671,682.882385 1627.851685,681.719910 
	C1615.233154,680.290344 1615.319214,680.279785 1608.862793,691.288757 
	C1607.133057,694.237854 1607.732178,694.914307 1610.928833,694.896179 
	C1624.927612,694.816772 1638.927124,694.863892 1652.926392,694.865356 
	C1655.592896,694.865601 1658.259888,694.834167 1660.925781,694.875671 
	C1664.792603,694.935913 1666.783081,697.408569 1666.212646,701.248718 
	C1665.774536,704.198792 1663.650391,702.760925 1662.329956,702.625183 
	C1645.429810,700.888062 1628.540527,699.044983 1611.650024,697.214722 
	C1603.958740,696.381348 1597.816040,703.713257 1599.900024,711.725159 
	C1600.336914,712.404053 1600.630371,712.765015 1600.768066,713.534241 
	C1602.267334,719.176453 1603.844238,724.474060 1605.696777,730.040894 
	C1606.403320,730.604187 1606.564575,731.013794 1606.263428,731.804138 
z"/>
<path fill="#BCED62" opacity="1.000000" stroke="none" 
	d="
M1671.545898,699.588135 
	C1669.077393,687.777222 1666.856201,676.342468 1664.295776,664.984131 
	C1663.304077,660.583984 1664.242920,658.933777 1669.009888,659.159302 
	C1676.154053,659.497253 1683.331299,659.409485 1690.484009,659.178955 
	C1693.825195,659.071228 1695.217041,660.130920 1695.517456,663.513550 
	C1696.179443,670.970093 1697.155029,678.399170 1698.028931,685.836365 
	C1698.349243,688.562561 1698.743774,691.280029 1699.134766,694.230652 
	C1701.491089,693.231384 1701.593994,691.391846 1702.218994,689.970520 
	C1706.170288,680.984924 1710.134644,672.002869 1713.893188,662.936157 
	C1715.010132,660.241760 1716.499390,659.122009 1719.475220,659.190186 
	C1727.297485,659.369446 1735.129028,659.374512 1742.951538,659.201782 
	C1747.286865,659.106079 1747.217651,660.533508 1745.374512,663.776245 
	C1736.411133,679.546997 1728.127319,695.730713 1718.582153,711.135742 
	C1710.939819,723.469971 1706.157715,736.445496 1705.168457,750.778748 
	C1704.810059,755.970642 1702.760864,757.457275 1697.756104,757.147461 
	C1690.789062,756.716003 1683.772705,756.918579 1676.783081,757.087463 
	C1673.542480,757.165710 1672.629639,756.127991 1673.500732,752.990479 
	C1674.209473,750.437805 1674.158813,747.661011 1674.965942,745.151184 
	C1679.958130,729.626770 1674.316284,714.928101 1671.545898,699.588135 
z"/>
<path fill="#F0743C" opacity="1.000000" stroke="none" 
	d="
M574.824707,694.093689 
	C553.625427,694.182007 532.829956,694.292603 512.036682,694.132812 
	C506.525299,694.090454 503.212189,689.767029 504.258820,684.244751 
	C508.592499,661.379272 513.091064,638.544922 517.544617,615.702148 
	C518.528381,610.656067 521.830139,608.282715 526.774841,608.387451 
	C542.078552,608.711914 557.382996,609.078064 572.679382,609.638184 
	C578.721008,609.859497 581.578430,612.766235 581.563904,618.788025 
	C581.509766,641.251770 581.270935,663.715210 581.044495,686.178223 
	C581.004944,690.101196 578.934021,692.712769 574.824707,694.093689 
z"/>
<path fill="#F2743B" opacity="1.000000" stroke="none" 
	d="
M539.000549,799.080322 
	C533.170715,799.053345 527.840210,799.064758 522.510925,798.988159 
	C517.697266,798.919067 514.596985,796.587646 513.813232,791.747375 
	C510.142792,769.078003 506.420990,746.415833 502.974487,723.712036 
	C501.973938,717.120728 505.272430,713.414612 511.932556,713.415649 
	C532.418457,713.418762 552.905029,713.623901 573.389771,713.878906 
	C578.667847,713.944519 581.847290,717.024780 581.881104,722.344055 
	C582.026123,745.163086 582.037598,767.983582 581.955383,790.802917 
	C581.935730,796.272400 578.727112,799.207947 572.979126,799.235413 
	C561.820007,799.288818 550.660034,799.143433 539.000549,799.080322 
z"/>
<path fill="#F2743C" opacity="1.000000" stroke="none" 
	d="
M603.003479,660.000000 
	C602.987610,644.504639 602.945557,629.509277 602.968201,614.513977 
	C602.979309,607.172241 605.895935,604.184387 613.277832,604.206421 
	C629.271362,604.254272 645.265015,604.398132 661.257568,604.591187 
	C667.956848,604.672058 670.363159,606.592712 671.437500,613.119141 
	C675.033813,634.965149 678.570129,656.822021 681.933167,678.704895 
	C683.183716,686.841858 680.084900,690.128479 671.765198,690.120422 
	C652.438232,690.101746 633.111145,690.041199 613.784302,689.958862 
	C605.883179,689.925232 603.091431,687.047729 603.040344,678.994202 
	C603.001221,672.829651 603.014160,666.664734 603.003479,660.000000 
z"/>
<path fill="#F1743C" opacity="1.000000" stroke="none" 
	d="
M638.003296,794.805786 
	C629.345459,794.542969 621.186096,794.311096 613.028198,794.035461 
	C606.466187,793.813660 603.373169,791.009583 603.394165,784.528992 
	C603.466431,762.205505 603.685974,739.882019 603.979187,717.560242 
	C604.044861,712.562744 607.124573,709.249451 612.092041,709.215698 
	C632.248596,709.078735 652.408691,709.063599 672.563721,709.310669 
	C678.550293,709.384094 681.752197,713.997559 680.609863,719.999573 
	C676.377930,742.235046 672.089539,764.459900 667.762085,786.676941 
	C666.486694,793.224731 663.886902,795.199402 656.991699,795.124817 
	C650.828308,795.058167 644.665527,794.922913 638.003296,794.805786 
z"/>
<path fill="#F1743C" opacity="1.000000" stroke="none" 
	d="
M479.039215,670.214905 
	C477.960693,676.028320 476.962585,681.422424 475.908478,686.805420 
	C474.659821,693.182068 472.002960,695.502808 465.693481,695.262329 
	C448.736908,694.616211 431.782898,693.888977 414.833221,693.081909 
	C409.112427,692.809448 405.912994,689.355347 406.238220,683.673035 
	C407.648346,659.034546 414.837677,635.994263 426.107635,614.188232 
	C428.709351,609.154297 433.882721,607.421448 439.191833,607.213928 
	C452.822784,606.681030 466.465851,606.355957 480.106781,606.223267 
	C487.086456,606.155334 490.343292,610.198853 489.043335,617.369324 
	C485.870758,634.869080 482.428558,652.320068 479.039215,670.214905 
z"/>
<path fill="#F1743C" opacity="1.000000" stroke="none" 
	d="
M747.143677,796.248291 
	C732.758240,797.400085 718.764648,797.017822 704.788025,797.261780 
	C697.947571,797.381165 694.639038,793.515076 695.906494,786.628662 
	C700.270935,762.915405 704.822327,739.235901 709.428162,715.568054 
	C710.504883,710.035339 713.210205,707.978210 718.963379,708.195190 
	C735.760864,708.828552 752.557556,709.525452 769.343140,710.413940 
	C776.548828,710.795349 779.210205,714.385742 778.660400,721.625916 
	C776.937134,744.321594 770.405334,765.646729 760.785461,786.170288 
	C758.045044,792.016846 753.812317,795.275391 747.143677,796.248291 
z"/>
<path fill="#F1743C" opacity="1.000000" stroke="none" 
	d="
M704.698303,645.505249 
	C703.042480,634.363708 701.320312,623.675903 699.939148,612.944214 
	C698.961853,605.350281 701.989685,602.034058 709.665771,601.974792 
	C719.319214,601.900269 728.972900,601.508728 738.607117,602.869812 
	C749.266357,604.375549 756.751831,609.832764 761.042969,619.689697 
	C767.988098,635.642944 772.464355,652.339783 775.975708,669.325806 
	C776.683167,672.748047 777.577026,676.151794 777.986511,679.611206 
	C778.671448,685.398132 775.716858,689.209778 769.975464,689.320618 
	C752.984741,689.648560 735.987854,689.762024 718.993591,689.738831 
	C713.623291,689.731445 710.838745,686.938721 710.018127,681.521118 
	C708.222656,669.668152 706.518921,657.801331 704.698303,645.505249 
z"/>
<path fill="#F1743C" opacity="1.000000" stroke="none" 
	d="
M475.203613,723.771912 
	C478.521912,746.065918 481.869019,767.935181 484.990631,789.836487 
	C486.200775,798.327087 483.198425,801.697266 474.758911,801.852478 
	C466.107269,802.011597 457.467560,801.992798 448.823090,801.114014 
	C436.810425,799.892761 428.254211,794.238831 423.518768,782.960999 
	C416.923004,767.252930 412.410675,750.937439 409.023895,734.280029 
	C408.394348,731.183716 407.574066,728.116760 407.124359,724.995483 
	C406.205627,718.618652 409.831848,714.190430 416.311462,714.125366 
	C432.790955,713.959839 449.272766,713.945129 465.753265,713.997498 
	C471.690247,714.016357 474.055420,716.549377 475.203613,723.771912 
z"/>
<path fill="#F2743C" opacity="1.000000" stroke="none" 
	d="
M467.831818,558.833740 
	C481.807709,545.780701 496.804626,534.822144 513.945801,526.978149 
	C515.457886,526.286194 516.976807,525.587524 518.545410,525.044800 
	C522.005188,523.847778 525.174438,524.398682 527.678589,527.162842 
	C530.176147,529.919739 530.642883,533.174072 528.862000,536.424011 
	C519.823608,552.918335 510.772278,569.406738 501.542084,585.793945 
	C499.280365,589.809448 495.386261,591.747925 490.714539,591.912109 
	C479.730133,592.298279 468.745331,592.674133 457.761627,593.079834 
	C453.496735,593.237366 449.778107,592.366089 447.777496,588.065613 
	C445.769470,583.749268 447.617188,580.474487 450.435211,577.237793 
	C455.908386,570.951416 461.535522,564.823303 467.831818,558.833740 
z"/>
<path fill="#F2743C" opacity="1.000000" stroke="none" 
	d="
M728.431763,573.558716 
	C730.474609,575.999084 732.506042,578.029907 734.038269,580.385376 
	C737.704590,586.021851 734.334595,593.020752 727.652710,592.989502 
	C715.172180,592.931030 702.682495,592.490417 690.221863,591.771484 
	C685.752686,591.513550 682.193909,588.854248 679.919983,584.735229 
	C671.395325,569.292847 662.801025,553.888794 654.274048,538.447632 
	C652.186401,534.667114 651.709900,530.797729 654.866821,527.338928 
	C658.059143,523.841492 661.833496,524.201111 665.843689,525.964050 
	C690.413208,536.765137 710.523621,553.418518 728.431763,573.558716 
z"/>
<path fill="#F1743C" opacity="1.000000" stroke="none" 
	d="
M646.554810,588.566040 
	C635.444458,588.654541 624.786804,588.794312 614.129089,588.801636 
	C606.180603,588.807129 603.292664,585.869568 603.372803,577.864075 
	C603.532898,561.877258 603.823120,545.891785 603.970703,529.904907 
	C604.007385,525.932312 605.068237,522.677307 608.884216,520.860291 
	C612.556641,519.111633 615.613953,520.457275 618.554565,522.745239 
	C629.406128,531.188293 637.287598,542.075562 643.995605,553.869263 
	C647.860291,560.663879 651.434326,567.631165 654.942017,574.619690 
	C659.019958,582.744385 656.151062,587.654907 646.554810,588.566040 
z"/>
<path fill="#F1743C" opacity="1.000000" stroke="none" 
	d="
M560.133301,532.119995 
	C563.642639,528.289612 567.057861,524.859497 571.031250,522.076538 
	C577.328674,517.665833 584.388794,520.779785 584.598877,528.499146 
	C585.070251,545.816650 585.095764,563.148376 585.116272,580.474609 
	C585.122131,585.445862 582.021667,588.633423 576.907532,588.679260 
	C564.583374,588.789734 552.246826,588.760376 539.933105,588.305298 
	C533.406555,588.064148 530.059448,582.403076 532.882568,576.568481 
	C540.430481,560.968872 548.333862,545.545654 560.133301,532.119995 
z"/>
<path fill="#B9EA63" opacity="1.000000" stroke="none" 
	d="
M848.412781,841.795776 
	C848.410400,843.594543 848.463623,844.930176 848.386597,846.258179 
	C848.256592,848.499451 846.973328,849.433228 844.769836,849.453674 
	C842.450989,849.475159 841.963928,847.984192 841.947998,846.186462 
	C841.884644,839.025696 841.876343,831.864258 841.866638,824.703125 
	C841.855347,816.389526 841.864014,808.075928 841.864014,799.310852 
	C844.216553,800.028137 845.196472,801.563599 846.367920,802.762512 
	C855.562622,812.173584 864.706360,821.634460 873.907104,831.039612 
	C874.904907,832.059631 875.806213,834.052002 877.305054,833.515747 
	C879.220886,832.830200 878.348755,830.609253 878.356567,829.070435 
	C878.398926,820.743469 878.331177,812.415649 878.256348,804.088562 
	C878.235291,801.741577 878.327393,799.908203 881.584045,799.879944 
	C884.756592,799.852539 885.011108,801.464600 885.002197,803.929871 
	C884.946899,819.189270 884.974426,834.449036 884.974426,850.234802 
	C882.242798,849.163574 881.034424,847.321472 879.580017,845.854919 
	C870.666687,836.867737 861.817139,827.817200 852.901550,818.832214 
	C851.903748,817.826660 851.038452,815.873840 849.461182,816.427673 
	C847.479675,817.123352 848.351257,819.310120 848.339111,820.844177 
	C848.285156,827.671875 848.373108,834.500732 848.412781,841.795776 
z"/>
<path fill="#B8E962" opacity="1.000000" stroke="none" 
	d="
M1036.770386,820.053467 
	C1043.177612,821.860413 1044.864990,823.919373 1044.957153,829.936768 
	C1045.038818,835.264832 1044.922119,840.595764 1044.999512,845.923950 
	C1045.030396,848.056030 1044.610962,849.500183 1042.059570,849.434204 
	C1039.801025,849.375671 1038.633057,848.272278 1038.598511,846.080750 
	C1038.525024,841.418701 1038.618896,836.752930 1038.480957,832.093506 
	C1038.407715,829.621521 1038.422974,826.808655 1035.325562,825.968445 
	C1032.015137,825.070312 1029.473267,826.578491 1027.594971,829.240845 
	C1025.790283,831.798767 1025.436768,834.788208 1025.372192,837.813843 
	C1025.315308,840.477478 1025.380249,843.143799 1025.314087,845.807007 
	C1025.255371,848.170776 1024.174805,849.481995 1021.601868,849.446411 
	C1018.816162,849.407776 1018.972717,847.554993 1018.978943,845.666809 
	C1018.993835,841.170288 1018.995728,836.673523 1018.968140,832.177124 
	C1018.952454,829.620972 1018.848694,826.941040 1015.858582,826.026978 
	C1012.585510,825.026428 1009.984680,826.384644 1008.077881,829.079224 
	C1006.594421,831.175415 1005.944580,833.558899 1005.953552,836.134094 
	C1005.965271,839.464722 1005.876099,842.796814 1005.947021,846.125732 
	C1005.988525,848.073303 1005.494873,849.355347 1003.269470,849.422791 
	C1001.398621,849.479370 999.624634,848.952820 999.587952,846.947144 
	C999.441711,838.960510 999.530579,830.969055 999.582153,822.979736 
	C999.589478,821.844543 1000.322021,821.116577 1001.502625,821.132141 
	C1002.902283,821.150574 1004.634460,820.509155 1005.162109,822.655029 
	C1005.758118,825.079224 1006.716553,824.335938 1008.234009,823.274963 
	C1014.886597,818.623657 1017.719299,818.712036 1024.539185,823.994019 
	C1026.013672,825.136047 1026.505737,824.355469 1027.329590,823.601196 
	C1029.889282,821.257446 1032.835571,819.905518 1036.770386,820.053467 
z"/>
<path fill="#B6E763" opacity="1.000000" stroke="none" 
	d="
M1241.894287,846.996582 
	C1236.290161,850.681885 1230.734985,851.336060 1225.121460,848.210938 
	C1222.281494,846.629883 1221.656982,847.626587 1221.689087,850.317444 
	C1221.724731,853.308960 1221.644409,856.301819 1221.675537,859.293457 
	C1221.698486,861.500366 1221.420288,863.148621 1218.503296,863.144043 
	C1215.786743,863.139709 1215.125122,861.918091 1215.137451,859.497314 
	C1215.197144,847.695251 1215.162964,835.892700 1215.160645,824.090332 
	C1215.160278,822.739319 1215.094971,821.330078 1216.895630,821.035583 
	C1218.337646,820.799561 1220.292603,820.204163 1220.791382,822.001343 
	C1221.793091,825.611023 1223.326294,823.377441 1224.646118,822.558655 
	C1229.015015,819.848145 1233.597412,819.037903 1238.443115,820.974121 
	C1248.320557,824.920776 1250.244629,838.299744 1241.894287,846.996582 
z"/>
<path fill="#B9EA63" opacity="1.000000" stroke="none" 
	d="
M899.121704,846.408813 
	C899.108643,832.338867 899.270142,818.705200 899.007446,805.079773 
	C898.924988,800.801270 900.376892,799.690857 904.416382,799.867554 
	C911.218689,800.165039 918.043579,799.990173 924.858337,799.931519 
	C927.108887,799.912109 928.685120,800.182739 928.710815,803.073364 
	C928.736694,805.995483 927.075317,806.274597 924.876099,806.268311 
	C919.889465,806.254028 914.899841,806.386475 909.916992,806.252747 
	C906.890808,806.171509 905.974121,807.409790 905.867737,810.368713 
	C905.447266,822.064209 905.354309,822.059692 917.114746,822.063110 
	C919.109375,822.063721 921.105286,822.129333 923.098206,822.075562 
	C925.336060,822.015320 925.861816,823.242371 925.893921,825.217346 
	C925.927368,827.275452 925.145508,828.358887 923.062378,828.407349 
	C921.733337,828.438293 920.403931,828.466064 919.074585,828.470093 
	C905.926758,828.509888 905.926941,828.508484 905.922302,841.869263 
	C905.921814,843.199036 905.927185,844.528992 905.912720,845.858643 
	C905.896545,847.344604 906.107971,849.112976 904.004883,849.262268 
	C902.012817,849.403625 899.428284,850.304443 899.121704,846.408813 
z"/>
<path fill="#BBEC62" opacity="1.000000" stroke="none" 
	d="
M1121.984985,808.034180 
	C1121.986572,805.043030 1122.038452,802.543457 1121.973877,800.046875 
	C1121.921143,798.006287 1122.170166,796.519531 1124.815674,796.431702 
	C1127.545776,796.340820 1128.280151,797.629456 1128.271606,800.033325 
	C1128.240234,808.860474 1128.243408,817.688049 1128.313110,826.514832 
	C1128.324097,827.901306 1127.647705,829.804077 1129.377197,830.491333 
	C1130.750488,831.037109 1131.688965,829.485779 1132.696411,828.707825 
	C1135.463745,826.570679 1138.218994,824.410522 1140.868652,822.131165 
	C1142.505981,820.722473 1143.764771,821.011963 1145.155151,822.425049 
	C1146.891968,824.190125 1145.240967,824.944214 1144.253784,825.993103 
	C1141.945190,828.446045 1137.126221,829.509338 1137.473999,833.149048 
	C1137.752197,836.062622 1140.853394,838.708862 1142.710083,841.468140 
	C1143.453613,842.573059 1144.419067,843.579163 1144.923340,844.781311 
	C1145.513794,846.188477 1148.490479,847.619324 1146.065430,849.061096 
	C1144.347412,850.082458 1141.426636,850.296021 1139.772827,847.870789 
	C1137.803711,844.982910 1135.981567,841.995239 1134.039917,839.088135 
	C1133.342529,838.043945 1132.850708,836.390747 1131.137573,836.941833 
	C1129.668945,837.414185 1128.534302,838.532227 1128.411743,840.201782 
	C1128.265625,842.191650 1128.249756,844.194275 1128.255005,846.191223 
	C1128.260986,848.440186 1127.350952,849.483521 1124.954712,849.456970 
	C1122.443848,849.429077 1121.950439,848.187622 1121.960693,846.001343 
	C1122.019531,833.510071 1121.986694,821.018494 1121.984985,808.034180 
z"/>
<path fill="#B9EA63" opacity="1.000000" stroke="none" 
	d="
M1302.432983,845.355957 
	C1300.771484,850.282104 1298.936157,850.808655 1296.012573,847.312378 
	C1294.141846,845.075073 1293.473999,847.564697 1292.580688,848.041138 
	C1286.701904,851.176636 1279.851929,850.712952 1275.339233,846.621277 
	C1270.881104,842.579163 1269.499634,834.709106 1272.165161,828.539490 
	C1274.617554,822.863281 1280.308105,819.473206 1286.656494,820.053467 
	C1288.119141,820.187073 1289.726929,820.459106 1290.942993,821.200439 
	C1293.352905,822.669495 1295.075928,824.502197 1298.059082,821.391785 
	C1299.498535,819.890991 1302.500000,820.928284 1302.449707,824.456665 
	C1302.352173,831.281738 1302.432861,838.109314 1302.432983,845.355957 
z"/>
<path fill="#BBEC62" opacity="1.000000" stroke="none" 
	d="
M1062.990234,849.400208 
	C1054.149780,845.291321 1050.982056,835.718201 1055.402954,827.473267 
	C1059.545776,819.747131 1068.314453,817.933228 1076.691528,823.266602 
	C1078.361206,824.329529 1078.653809,824.182678 1079.259644,822.396667 
	C1079.992676,820.235962 1082.069946,821.139099 1083.595215,821.240906 
	C1085.194702,821.347656 1085.063354,822.824280 1085.068481,823.941101 
	C1085.102905,831.428040 1085.091919,838.915161 1085.089111,846.402222 
	C1085.088623,847.771118 1085.071899,849.261963 1083.209473,849.296204 
	C1081.691772,849.324097 1079.601562,850.285522 1078.974976,847.988586 
	C1078.344727,845.677551 1077.348022,846.488403 1076.187622,847.332886 
	C1072.276123,850.179016 1067.964844,850.678467 1062.990234,849.400208 
z"/>
<path fill="#B8E962" opacity="1.000000" stroke="none" 
	d="
M948.920471,836.978638 
	C948.919250,828.000854 948.758057,819.514954 948.989624,811.039856 
	C949.093201,807.248291 947.665100,805.917664 944.063293,806.257507 
	C942.416504,806.412964 940.739258,806.211914 939.077637,806.251160 
	C936.829102,806.304321 935.875610,805.437744 935.896301,803.020081 
	C935.917603,800.539246 936.971924,799.911804 939.206787,799.928772 
	C948.020386,799.995605 956.834961,799.993042 965.648621,799.933350 
	C967.886719,799.918213 968.930725,800.590637 968.969971,803.051331 
	C969.010315,805.590942 967.722107,806.190552 965.641846,806.232422 
	C965.475647,806.235779 965.309265,806.242493 965.143555,806.255676 
	C955.615356,807.012756 955.615295,807.012939 955.614014,816.436096 
	C955.612793,825.749146 955.591370,835.062195 955.623291,844.375122 
	C955.632507,847.061035 955.520447,849.458008 951.850037,849.447876 
	C947.916016,849.437012 949.065002,846.547913 948.950500,844.458191 
	C948.823303,842.136902 948.920837,839.803223 948.920471,836.978638 
z"/>
<path fill="#B8E962" opacity="1.000000" stroke="none" 
	d="
M1157.858887,823.787842 
	C1167.316406,817.515137 1176.867188,819.377869 1181.105835,827.897949 
	C1182.607300,830.916077 1182.439209,832.684448 1178.792236,833.760742 
	C1173.700073,835.263611 1168.734375,837.198730 1163.730347,838.992798 
	C1162.712524,839.357727 1161.195801,839.420532 1161.276001,840.942505 
	C1161.342529,842.202881 1162.546387,842.817444 1163.562134,843.379883 
	C1166.553101,845.035828 1169.698486,845.081970 1172.655151,843.556213 
	C1175.290649,842.196106 1176.379272,843.610291 1177.181641,845.607056 
	C1178.207764,848.160706 1175.736450,848.237305 1174.464233,848.797729 
	C1167.528442,851.852600 1159.126587,849.701721 1155.183105,844.017090 
	C1151.010986,838.002930 1151.941284,830.253235 1157.858887,823.787842 
z"/>
<path fill="#B8E963" opacity="1.000000" stroke="none" 
	d="
M1352.101562,849.261963 
	C1344.732666,845.770630 1341.394287,840.104919 1342.387085,833.297729 
	C1343.340576,826.759827 1348.487305,821.415527 1355.017578,820.182434 
	C1361.557617,818.947510 1367.486938,821.770264 1370.612915,827.397827 
	C1372.431396,830.671509 1372.347656,832.727478 1368.167969,833.905945 
	C1363.230103,835.298279 1358.442383,837.227478 1353.601685,838.957642 
	C1352.569092,839.326721 1351.094849,839.425232 1351.048096,840.848450 
	C1351.005737,842.136414 1352.243652,842.779114 1353.238770,843.343506 
	C1356.200439,845.023254 1359.344727,845.084717 1362.314453,843.599304 
	C1364.856323,842.327942 1366.087402,843.455994 1366.885010,845.557739 
	C1367.822632,848.028381 1365.518433,848.250488 1364.175049,848.822205 
	C1360.384521,850.434998 1356.447754,850.532104 1352.101562,849.261963 
z"/>
<path fill="#B9EA63" opacity="1.000000" stroke="none" 
	d="
M858.131348,693.444580 
	C855.624939,695.221008 856.586792,695.995300 858.708374,695.797302 
	C881.767822,693.645996 904.875977,695.395752 927.955017,694.893066 
	C933.404541,694.774414 933.583557,695.399231 932.271484,700.569397 
	C931.702393,702.811890 930.581543,703.051086 928.729126,702.853455 
	C906.749329,700.507874 884.769958,698.156677 862.780640,695.903992 
	C860.876465,695.708862 859.960205,694.316833 858.131348,693.444580 
z"/>
<path fill="#ACDD64" opacity="1.000000" stroke="none" 
	d="
M872.000854,712.419373 
	C889.964478,712.421021 907.428528,712.371460 924.891357,712.498962 
	C926.739258,712.512451 930.228455,710.977722 929.709717,715.277405 
	C929.337769,718.360352 929.282471,721.203979 924.236023,720.590210 
	C903.612061,718.081909 882.919739,716.137817 862.258972,713.926392 
	C859.533752,713.634766 856.845154,713.000305 853.540283,712.419250 
	C859.892822,712.419250 865.696899,712.419250 872.000854,712.419373 
z"/>
<path fill="#B9EA63" opacity="1.000000" stroke="none" 
	d="
M882.004761,641.633667 
	C900.645081,641.634521 918.786865,641.589661 936.927612,641.699341 
	C938.984863,641.711853 942.374390,640.292542 941.991272,644.855286 
	C941.665100,648.739807 940.333191,650.043091 936.024902,649.527893 
	C915.711304,647.098511 895.347656,645.083740 874.993286,643.004456 
	C872.619324,642.761841 870.445618,642.105347 868.318054,641.138855 
	C867.675354,640.846924 867.031555,640.728210 866.532104,641.319946 
	C866.365356,641.517578 866.325256,641.978699 866.436157,642.225525 
	C866.801758,643.038757 867.536133,642.799377 868.125854,642.606384 
	C872.509094,641.171326 877.035156,641.797729 882.004761,641.633667 
z"/>
<path fill="#B1E263" opacity="1.000000" stroke="none" 
	d="
M907.000122,659.178772 
	C916.494690,659.179443 925.489319,659.162537 934.483765,659.193115 
	C936.727295,659.200745 939.522278,658.559143 938.969666,662.498352 
	C938.563538,665.393250 938.484741,667.844177 934.065674,667.336914 
	C910.916992,664.679504 887.730286,662.353760 864.581787,659.178772 
	C878.554565,659.178772 892.527283,659.178772 907.000122,659.178772 
z"/>
<path fill="#B3E463" opacity="1.000000" stroke="none" 
	d="
M914.284058,737.406128 
	C892.776550,735.101746 871.713013,732.864258 851.067078,730.671143 
	C854.210022,729.812134 857.818604,730.152466 861.406372,730.148254 
	C881.404358,730.125000 901.402649,730.089905 921.399841,730.213013 
	C923.252808,730.224365 926.588074,728.553040 926.540771,732.654724 
	C926.498291,736.328491 925.559143,739.311157 920.681824,738.118408 
	C918.759583,737.648315 916.716248,737.673401 914.284058,737.406128 
z"/>
<path fill="#BCED62" opacity="1.000000" stroke="none" 
	d="
M1262.199951,809.041748 
	C1262.198608,821.188599 1262.232422,832.843384 1262.164307,844.497681 
	C1262.151611,846.681335 1262.765259,849.401611 1258.988281,849.438843 
	C1255.074219,849.477417 1255.972778,846.707153 1255.966431,844.560974 
	C1255.923462,830.076050 1255.923706,815.590820 1255.968506,801.105896 
	C1255.974731,799.115906 1255.163330,796.620483 1258.730835,796.444580 
	C1262.451172,796.261108 1262.130371,798.742676 1262.181519,801.057556 
	C1262.236694,803.553833 1262.197876,806.052124 1262.199951,809.041748 
z"/>
<path fill="#B8E962" opacity="1.000000" stroke="none" 
	d="
M1601.149414,713.814636 
	C1600.497314,713.440430 1600.304199,713.002075 1600.038086,712.335266 
	C1608.428223,713.001099 1616.916138,712.418274 1625.391479,712.491577 
	C1638.371460,712.603699 1651.353149,712.515198 1664.334106,712.536743 
	C1666.475586,712.540344 1668.498291,712.326355 1669.274292,715.375977 
	C1670.519531,720.270386 1670.287964,720.780518 1665.145752,720.254883 
	C1643.966309,718.089783 1622.787476,715.919067 1601.149414,713.814636 
z"/>
<path fill="#B3E463" opacity="1.000000" stroke="none" 
	d="
M896.000000,748.076355 
	C904.165771,748.077759 911.831848,748.040649 919.497009,748.108887 
	C921.312622,748.125000 923.891174,747.390015 923.348572,750.892761 
	C922.943848,753.504944 923.154724,756.531860 919.075256,756.121338 
	C911.452454,755.354309 903.823181,754.649231 896.205872,753.831482 
	C880.495544,752.144958 864.791321,750.401123 849.110718,748.076355 
	C864.573792,748.076355 880.036926,748.076355 896.000000,748.076355 
z"/>
<path fill="#B3E463" opacity="1.000000" stroke="none" 
	d="
M1193.269409,841.828125 
	C1193.268677,838.358337 1193.299316,835.361328 1193.258423,832.365234 
	C1193.218872,829.472168 1193.981079,826.428467 1189.410767,825.682190 
	C1187.322632,825.341187 1187.581299,821.796875 1189.262817,821.616333 
	C1194.750977,821.027344 1192.949951,817.191528 1193.261475,814.233643 
	C1193.400024,812.917725 1193.145508,811.472900 1193.609131,810.299927 
	C1194.255493,808.664612 1195.961548,808.680908 1197.482300,808.842163 
	C1198.926147,808.995300 1199.977661,809.554199 1199.897461,811.325012 
	C1199.814697,813.151855 1200.035034,814.997742 1199.881836,816.815063 
	C1199.618530,819.937927 1200.648315,821.537903 1204.048828,821.173462 
	C1205.735107,820.992676 1207.566284,821.102539 1207.588867,823.531006 
	C1207.610840,825.889526 1205.704956,826.237427 1204.106689,826.134216 
	C1200.285400,825.887634 1199.761230,827.964294 1199.870239,831.074158 
	C1200.027710,835.563538 1199.934692,840.062866 1199.892822,844.557434 
	C1199.872070,846.791199 1200.557617,849.466248 1196.798828,849.478760 
	C1192.937622,849.491638 1193.251953,846.836304 1193.270874,844.298950 
	C1193.275757,843.633118 1193.270264,842.967102 1193.269409,841.828125 
z"/>
<path fill="#B9EA63" opacity="1.000000" stroke="none" 
	d="
M1362.385742,644.376221 
	C1354.853271,643.539429 1347.699219,643.364014 1343.357666,642.034912 
	C1364.943848,642.034912 1389.177979,642.034912 1413.496460,642.034912 
	C1409.508423,648.762268 1408.164917,649.319885 1400.987549,648.502808 
	C1388.280640,647.056030 1375.553589,645.785706 1362.385742,644.376221 
z"/>
<path fill="#B3E463" opacity="1.000000" stroke="none" 
	d="
M1606.454346,732.046753 
	C1606.015991,731.690552 1605.997192,731.296326 1605.975342,730.606079 
	C1626.452393,730.253357 1646.932373,730.170837 1667.412354,730.187317 
	C1669.097534,730.188660 1671.981934,729.200012 1671.428467,732.762024 
	C1671.026367,735.348999 1671.600098,738.752808 1666.963989,738.219421 
	C1655.225586,736.868835 1643.465088,735.707520 1631.710693,734.497131 
	C1623.434204,733.644897 1615.153198,732.836548 1606.454346,732.046753 
z"/>
<path fill="#B8E963" opacity="1.000000" stroke="none" 
	d="
M1474.114502,677.015625 
	C1495.046509,677.015625 1515.498535,676.972900 1535.949585,677.096863 
	C1537.585205,677.106750 1540.870728,675.467041 1540.507812,679.416199 
	C1540.234131,682.394165 1540.431396,685.701111 1535.317993,685.095398 
	C1515.185181,682.710876 1495.009155,680.690857 1474.849243,678.535828 
	C1471.793335,678.209106 1468.737183,677.883789 1465.689209,677.015686 
	C1468.337524,677.015686 1470.985840,677.015686 1474.114502,677.015625 
z"/>
<path fill="#B8E963" opacity="1.000000" stroke="none" 
	d="
M884.000000,677.014709 
	C899.803955,677.014893 915.108704,676.939148 930.410889,677.105225 
	C932.468567,677.127625 936.254395,675.135620 935.951477,680.175903 
	C935.714539,684.118530 934.144226,685.500916 929.999023,685.026123 
	C907.045288,682.396729 884.063171,680.015381 861.097778,677.014709 
	C868.565186,677.014709 876.032593,677.014709 884.000000,677.014709 
z"/>
<path fill="#B8E963" opacity="1.000000" stroke="none" 
	d="
M1329.264648,826.095215 
	C1324.539551,825.331299 1320.850220,826.317139 1318.709595,830.457764 
	C1316.798584,834.154175 1316.909180,837.956665 1319.562012,841.243408 
	C1322.500977,844.884705 1326.468018,845.887024 1330.763794,844.033386 
	C1333.253174,842.959290 1334.764648,843.823120 1335.500122,845.878845 
	C1336.354370,848.266846 1333.895264,848.411072 1332.555420,848.969299 
	C1326.188232,851.621643 1318.364746,849.832214 1314.266113,844.933350 
	C1310.182251,840.052185 1309.888672,832.122070 1313.593018,826.751282 
	C1317.335815,821.324707 1324.472778,819.008911 1331.390869,821.279663 
	C1333.175659,821.865540 1336.427002,821.986816 1335.624023,825.010742 
	C1334.662964,828.629578 1331.947876,827.228516 1329.264648,826.095215 
z"/>
<path fill="#B3E463" opacity="1.000000" stroke="none" 
	d="
M1103.033691,833.795349 
	C1102.824707,837.871765 1102.651367,841.522400 1102.601196,845.174683 
	C1102.567749,847.612976 1102.049072,849.450195 1099.069946,849.468994 
	C1096.151733,849.487366 1096.060425,847.610107 1096.074463,845.448608 
	C1096.118774,838.631470 1096.055908,831.813538 1096.119385,824.996643 
	C1096.133545,823.465393 1095.576172,821.407959 1098.090576,821.147339 
	C1099.925293,820.957153 1101.745972,820.748901 1102.186523,823.443420 
	C1102.551514,825.675049 1103.926758,824.806152 1105.091309,823.999146 
	C1106.181885,823.243408 1107.172729,822.233154 1108.375122,821.776306 
	C1110.007812,821.156067 1112.128662,818.785339 1113.434570,821.321289 
	C1114.594604,823.574280 1113.397583,825.868469 1110.530884,826.604675 
	C1106.863525,827.546631 1104.450439,829.865417 1103.033691,833.795349 
z"/>
<path fill="#3D6D71" opacity="1.000000" stroke="none" 
	d="
M450.270142,836.722046 
	C469.020752,843.384827 486.901428,851.101929 504.063141,860.361206 
	C509.694000,863.399231 515.428589,864.788635 521.687256,864.950500 
	C537.836731,865.368408 554.013245,865.268555 570.104309,866.988037 
	C585.002563,868.579956 599.246460,872.278809 611.961243,880.610352 
	C613.473755,881.601501 614.898499,882.726562 616.675903,884.015808 
	C614.639771,885.676086 612.613342,885.040771 610.804565,885.042664 
	C569.152771,885.086182 527.500977,885.076233 485.849121,885.076660 
	C484.349670,885.076660 482.849182,885.046265 481.350922,885.089844 
	C474.834717,885.279358 470.632477,888.913269 470.549347,894.402954 
	C470.462891,900.115112 474.759460,903.942200 481.555634,903.949036 
	C516.543152,903.984314 551.530640,903.967224 586.518188,903.968140 
	C601.846069,903.968506 617.179810,903.718323 632.499207,904.079102 
	C639.591553,904.246155 645.945435,902.588867 652.166382,899.514465 
	C667.562012,891.905701 682.155151,882.881531 696.982971,874.270874 
	C709.512878,866.994751 722.109436,859.862549 735.481506,854.189697 
	C748.429810,848.696777 761.676758,847.986206 775.046204,851.978821 
	C789.613098,856.328857 795.154602,867.595032 790.129028,882.024414 
	C786.290649,893.045044 779.017029,901.682007 770.366882,909.195129 
	C755.025940,922.519775 737.410645,932.323486 719.349609,941.322388 
	C677.668945,962.089661 634.229736,978.432068 589.653076,991.713135 
	C535.161194,1007.948303 482.657379,1001.034546 431.693115,977.326538 
	C413.254974,968.749268 395.306488,959.296143 377.737518,949.074036 
	C374.659790,947.283386 373.296509,945.332581 373.308441,941.640076 
	C373.436554,901.987976 373.460785,862.334900 373.291260,822.683105 
	C373.271210,817.994141 374.635834,817.170654 379.020813,817.916077 
	C403.215393,822.029053 426.819183,828.302185 450.270142,836.722046 
z"/>
<path fill="#3D6D71" opacity="1.000000" stroke="none" 
	d="
M276.141479,794.924561 
	C300.956787,794.924316 325.285553,794.964233 349.613831,794.877686 
	C352.882660,794.866089 354.800598,795.155151 354.792267,799.320129 
	C354.690155,850.306580 354.721375,901.293518 354.869232,952.279846 
	C354.878387,955.442871 354.010284,956.290283 351.019897,956.281311 
	C325.691742,956.205078 300.363068,956.193726 275.035095,956.293518 
	C271.777893,956.306335 270.741058,955.221985 270.745972,951.979614 
	C270.823395,900.989685 270.839081,849.999573 270.726013,799.009766 
	C270.717194,795.038025 272.650757,794.639404 276.141479,794.924561 
z"/>
<path fill="#3C6D71" opacity="1.000000" stroke="none" 
	d="
M1576.687378,688.303162 
	C1576.722534,688.523804 1576.632935,688.608276 1576.543457,688.692810 
	C1576.460327,688.602112 1576.309692,688.508545 1576.313232,688.421448 
	C1576.317017,688.333252 1576.473145,688.251526 1576.687378,688.303162 
z"/>
<path fill="#3E6D70" opacity="1.000000" stroke="none" 
	d="
M541.001099,677.960449 
	C535.669495,677.957336 530.835327,677.864990 526.006531,677.986389 
	C523.356018,678.052979 522.388184,677.145935 522.915771,674.458130 
	C525.993835,658.776917 529.036682,643.088562 532.008606,627.386963 
	C532.445740,625.077515 533.931274,625.005859 535.678040,625.057800 
	C544.337708,625.315491 552.996216,625.645691 561.657776,625.784973 
	C564.308350,625.827576 565.050415,626.912659 565.028503,629.412842 
	C564.897278,644.407776 564.825195,659.403870 564.873047,674.399170 
	C564.882385,677.322876 563.699097,678.093506 560.993896,678.033630 
	C554.498840,677.889893 547.998718,677.970459 541.001099,677.960449 
z"/>
<path fill="#406D70" opacity="1.000000" stroke="none" 
	d="
M551.984497,730.023132 
	C565.480530,730.034912 565.487000,730.034912 565.540222,742.981262 
	C565.588745,754.788696 565.533020,766.597412 565.716003,778.402649 
	C565.768555,781.796753 564.781677,783.070923 561.194153,782.964722 
	C551.888367,782.689331 542.569214,782.671143 533.259766,782.821167 
	C529.889282,782.875488 528.600403,781.582642 528.114197,778.375488 
	C525.897705,763.754761 523.560120,749.151611 521.140869,734.562927 
	C520.585144,731.211731 521.224182,729.744934 525.048767,729.861572 
	C533.855347,730.129944 542.674194,729.992981 551.984497,730.023132 
z"/>
<path fill="#406D70" opacity="1.000000" stroke="none" 
	d="
M619.383789,623.453735 
	C619.805054,620.228943 621.985901,620.859314 623.687622,620.857971 
	C633.184814,620.850586 642.685852,621.088379 652.177185,620.872925 
	C655.569214,620.795959 656.407471,622.341614 656.843323,625.141602 
	C659.122253,639.781738 661.451477,654.414490 663.850830,669.035400 
	C664.380615,672.263672 663.966431,673.946106 659.986938,673.848022 
	C648.162964,673.556641 636.328552,673.507996 624.501160,673.634583 
	C620.550415,673.676880 619.405762,672.246826 619.439880,668.400940 
	C619.571533,653.573303 619.407471,638.743042 619.383789,623.453735 
z"/>
<path fill="#3D6D71" opacity="1.000000" stroke="none" 
	d="
M657.397827,753.388306 
	C655.931641,760.823853 654.420654,767.818542 653.280396,774.873108 
	C652.795349,777.873840 651.416077,778.676697 648.607117,778.569336 
	C640.293091,778.251526 631.972595,778.033264 623.653137,777.967285 
	C620.852600,777.945068 619.898743,776.951233 619.928467,774.157043 
	C620.086365,759.345825 620.155273,744.532898 620.111572,729.720947 
	C620.102661,726.707886 621.164062,725.606934 624.170532,725.641174 
	C635.652832,725.772217 647.137878,725.832703 658.619751,725.710754 
	C662.000000,725.674866 662.568848,727.059204 661.979919,729.958435 
	C660.424377,737.616699 658.987183,745.298950 657.397827,753.388306 
z"/>
<path fill="#3E6D70" opacity="1.000000" stroke="none" 
	d="
M464.528503,658.529053 
	C463.380524,664.333862 462.219116,669.704956 461.357178,675.123718 
	C460.936768,677.766968 459.899139,678.784302 457.129974,678.619995 
	C447.158325,678.028198 437.177216,677.563904 427.193878,677.221069 
	C424.363892,677.123840 423.419922,676.205933 423.807312,673.316711 
	C426.041962,656.648987 431.435547,640.991150 438.594666,625.864624 
	C439.352509,624.263306 440.478302,623.693970 442.110046,623.651306 
	C450.764374,623.424866 459.419952,623.227173 468.071289,622.915100 
	C471.217743,622.801575 471.071564,624.490723 470.632996,626.739380 
	C468.594666,637.190063 466.629608,647.655090 464.528503,658.529053 
z"/>
<path fill="#3E6D70" opacity="1.000000" stroke="none" 
	d="
M761.207520,729.164185 
	C759.139709,746.310730 753.759460,761.996765 746.797546,777.212219 
	C745.956238,779.050903 744.905518,780.033142 742.697632,780.069580 
	C734.370483,780.207214 726.043213,780.469482 717.723328,780.846985 
	C714.480713,780.994141 713.750244,779.870605 714.375854,776.742065 
	C717.541565,760.911621 720.614258,745.061096 723.503296,729.178162 
	C724.097229,725.913330 725.305420,724.754211 728.682373,724.969482 
	C738.156006,725.573486 747.652161,725.814758 757.134338,726.300049 
	C758.796021,726.385071 761.071411,725.892029 761.207520,729.164185 
z"/>
<path fill="#3E6D70" opacity="1.000000" stroke="none" 
	d="
M722.478943,653.480225 
	C720.933350,643.184082 719.553955,633.306274 717.987000,623.458191 
	C717.403442,619.790710 718.003052,618.115967 722.371094,618.082458 
	C741.569397,617.935242 744.351685,619.711365 750.530334,637.846313 
	C754.016357,648.077942 756.897461,658.476807 759.126587,669.065735 
	C759.750610,672.030029 759.483765,673.218140 756.036499,673.144958 
	C747.058777,672.954346 738.071289,673.008301 729.092468,673.193298 
	C726.049316,673.255920 725.094788,672.065674 724.797974,669.204529 
	C724.266724,664.084473 723.334961,659.006104 722.478943,653.480225 
z"/>
<path fill="#3E6D70" opacity="1.000000" stroke="none" 
	d="
M466.146912,774.848206 
	C468.237885,787.541016 468.084381,785.339050 457.528931,785.209351 
	C443.481567,785.036743 440.588654,782.751282 435.761993,769.353577 
	C431.698212,758.073364 428.432159,746.576843 425.906708,734.847656 
	C425.154083,731.352234 426.149902,730.490173 429.462189,730.519287 
	C438.282318,730.596985 447.105377,730.482544 455.925476,730.335815 
	C458.539490,730.292358 459.748627,731.134338 460.134186,733.924500 
	C462.001038,747.433655 464.083618,760.912964 466.146912,774.848206 
z"/>
<path fill="#456D6E" opacity="1.000000" stroke="none" 
	d="
M499.638947,555.188965 
	C496.921814,560.472900 493.931122,565.289551 491.573029,570.398254 
	C489.640259,574.585571 486.921387,576.481628 482.330109,575.989990 
	C480.046204,575.745422 477.714447,575.947449 474.083496,575.947449 
	C481.927155,567.657104 489.802917,561.047241 498.633240,555.043579 
	C499.190704,554.923218 499.414886,554.885681 499.638947,555.188965 
z"/>
<path fill="#456D6E" opacity="1.000000" stroke="none" 
	d="
M499.133606,555.104248 
	C499.426208,554.267639 499.726929,554.234680 499.717834,555.345215 
	C499.638855,555.529907 499.300659,555.247742 499.133606,555.104248 
z"/>
<path fill="#456D6E" opacity="1.000000" stroke="none" 
	d="
M682.750916,554.856567 
	C692.215210,560.227356 699.575256,567.653320 707.337280,574.914185 
	C699.310974,577.966248 693.839661,576.078613 690.019470,569.195374 
	C687.598511,564.833374 685.205505,560.455811 682.691162,555.750977 
	C682.533569,555.207642 682.484741,554.998535 682.750916,554.856567 
z"/>
<path fill="#456D6E" opacity="1.000000" stroke="none" 
	d="
M682.703613,555.293701 
	C682.366150,555.009399 681.697327,554.438232 682.982178,554.733704 
	C683.065918,554.923584 682.824829,555.170715 682.703613,555.293701 
z"/>
<path fill="#406D70" opacity="1.000000" stroke="none" 
	d="
M627.217041,557.820679 
	C629.848022,562.415283 632.285645,566.704041 635.363464,572.119080 
	C630.320251,572.119080 626.301025,572.120117 622.281738,572.118530 
	C620.920654,572.117920 620.047974,571.541931 620.045593,570.080872 
	C620.034485,563.215210 620.040588,556.349548 620.040588,548.428955 
	C623.621155,551.571533 625.119141,554.701843 627.217041,557.820679 
z"/>
<path fill="#456D6E" opacity="1.000000" stroke="none" 
	d="
M567.952148,550.121277 
	C568.380310,556.508911 568.535889,562.643677 568.824646,568.772217 
	C568.949646,571.424500 567.729004,572.416626 565.262085,572.179199 
	C561.684631,571.834900 556.637146,573.762756 554.918091,571.254944 
	C553.341003,568.954285 557.187439,565.196716 558.951782,562.282776 
	C561.575928,557.948730 563.528870,553.095276 567.952148,550.121277 
z"/>
<path fill="#3F7071" opacity="1.000000" stroke="none" 
	d="
M1240.211914,831.990845 
	C1240.455078,833.833130 1240.848511,835.349121 1240.642456,836.778748 
	C1239.975586,841.406555 1235.993286,844.868469 1231.319458,844.981995 
	C1226.839844,845.090820 1223.532471,843.131104 1222.110718,838.803650 
	C1220.468628,833.805969 1222.377808,828.800415 1226.442261,826.638733 
	C1230.464844,824.499451 1235.260986,825.273987 1238.285767,828.668030 
	C1239.041138,829.515686 1239.494995,830.632202 1240.211914,831.990845 
z"/>
<path fill="#3F7071" opacity="1.000000" stroke="none" 
	d="
M1277.440186,833.465698 
	C1279.634766,826.878662 1283.589722,824.265808 1288.912842,825.556396 
	C1294.388428,826.884033 1296.903198,831.083923 1295.975342,837.351868 
	C1295.301636,841.903015 1291.141846,845.155273 1286.370728,844.860962 
	C1280.979736,844.528503 1277.753052,840.578918 1277.440186,833.465698 
z"/>
<path fill="#3F7071" opacity="1.000000" stroke="none" 
	d="
M1069.921387,844.875854 
	C1064.633301,844.534607 1061.474243,841.920776 1060.302856,837.239502 
	C1059.347168,833.420715 1060.387695,829.942810 1063.489380,827.383545 
	C1066.609619,824.808899 1070.165527,824.586304 1073.761108,826.272888 
	C1078.165894,828.338989 1079.347534,832.136230 1078.817139,836.627808 
	C1078.226196,841.630737 1075.164551,844.199951 1069.921387,844.875854 
z"/>
<path fill="#3F7071" opacity="1.000000" stroke="none" 
	d="
M1160.685181,835.589355 
	C1158.226318,832.314331 1159.746948,828.124756 1163.817139,826.030212 
	C1167.617920,824.074280 1172.845581,825.375488 1174.369507,828.529419 
	C1175.324219,830.505371 1173.927979,830.782349 1172.693359,831.237915 
	C1168.820312,832.666870 1164.938477,834.071960 1160.685181,835.589355 
z"/>
<path fill="#3F7071" opacity="1.000000" stroke="none" 
	d="
M1348.767090,833.801025 
	C1350.566162,825.799194 1357.681396,822.448303 1362.605957,826.905762 
	C1364.531250,828.648376 1365.458130,830.287231 1362.010132,831.442993 
	C1358.400513,832.653015 1354.837402,834.002258 1351.262695,835.314880 
	C1350.034546,835.765930 1348.975098,835.971863 1348.767090,833.801025 
z"/>
<path fill="#F2743C" opacity="1.000000" stroke="none" 
	d="
M339.316620,940.334167 
	C328.318054,949.366150 315.465179,950.716003 304.249298,944.239075 
	C293.539978,938.054749 288.020935,926.276062 289.919800,913.657349 
	C291.692749,901.875305 300.873444,892.281860 312.984344,889.555908 
	C325.392365,886.763123 338.523254,892.657715 344.920074,903.892151 
	C351.703979,915.806458 349.697052,929.394958 339.316620,940.334167 
z"/>
<path fill="#406D70" opacity="1.000000" stroke="none" 
	d="
M317.380981,907.957153 
	C325.672455,908.062195 330.609863,912.832397 329.934021,919.640137 
	C329.306091,925.965149 323.607544,930.228149 317.192596,929.171875 
	C312.523590,928.403076 308.912109,924.535461 308.338318,919.689453 
	C307.716705,914.440063 310.812500,910.250061 317.380981,907.957153 
z"/>
</svg>